<svg width="15" height="14" viewBox="0 0 15 14" fill="none" xmlns="http://www.w3.org/2000/svg">
<path d="M0 14V7.87502H6.43743L3.47897 10.6925C4.49973 11.6856 5.89715 12.2468 7.35707 12.25C9.69238 12.2467 11.7727 10.8449 12.5512 8.75001H12.5677C12.673 8.46529 12.7527 8.1726 12.8059 7.87502H14.6562C14.1928 11.3749 11.0646 13.9999 7.35707 14H7.34787C5.39711 14.0055 3.5251 13.2682 2.14918 11.9525L0 14ZM1.90732 6.12503H0.0570171C0.520282 2.62646 3.64635 0.00194311 7.35247 3.56279e-05H7.35707C9.30816 -0.00590558 11.1806 0.731425 12.5567 2.04755L14.7141 3.56279e-05V6.12503H8.2767L11.2398 3.30754C10.218 2.31325 8.81864 1.75193 7.35707 1.75006C5.0217 1.75334 2.94143 3.1551 2.16298 5.25003H2.14642C2.04026 5.5345 1.95964 5.82727 1.90732 6.12503Z" fill="#32A148"/>
</svg>
