<svg width="21" height="24" viewBox="0 0 21 24" fill="none" xmlns="http://www.w3.org/2000/svg">
<path d="M3.78943 6.31579C3.78943 2.82768 6.61711 0 10.1052 0C13.5933 0 16.421 2.82768 16.421 6.31579C16.421 9.80387 13.5933 12.6316 10.1052 12.6316C6.61711 12.6316 3.78943 9.80387 3.78943 6.31579ZM10.1052 10.1053C12.1981 10.1053 13.8947 8.40865 13.8947 6.31579C13.8947 4.22293 12.1981 2.52632 10.1052 2.52632C8.01229 2.52632 6.31574 4.22293 6.31574 6.31579C6.31574 8.40865 8.01229 10.1053 10.1052 10.1053Z" fill="white"/>
<path d="M2.95977 16.8545C1.06465 18.7496 0 21.32 0 24H2.52632C2.52632 21.99 3.32481 20.0623 4.74614 18.641C6.16747 17.2195 8.0952 16.4211 10.1053 16.4211C12.1153 16.4211 14.043 17.2195 15.4643 18.641C16.8858 20.0623 17.6842 21.99 17.6842 24H20.2105C20.2105 21.32 19.1458 18.7496 17.2508 16.8545C15.3557 14.9595 12.7853 13.8948 10.1053 13.8948C7.42518 13.8948 4.85487 14.9595 2.95977 16.8545Z" fill="white"/>
</svg>
