<svg width="18" height="13" viewBox="0 0 18 13" fill="none" xmlns="http://www.w3.org/2000/svg">
<path d="M15.485 13H1.93562C0.866608 13 0 12.418 0 11.7V2.6C0 1.88203 0.866608 1.3 1.93562 1.3H3.87125V0H5.80687V1.3H11.6137V0H13.5494V1.3H15.485C16.554 1.3 17.4206 1.88203 17.4206 2.6V11.7C17.4206 12.418 16.554 13 15.485 13ZM1.93562 5.2V11.7H15.485V5.2H1.93562ZM1.93562 2.6V3.9H15.485V2.6H1.93562ZM13.5494 10.4H11.6137V9.1H13.5494V10.4ZM9.67812 10.4H7.7425V9.1H9.67812V10.4ZM5.80687 10.4H3.87125V9.1H5.80687V10.4ZM13.5494 7.8H11.6137V6.5H13.5494V7.8ZM9.67812 7.8H7.7425V6.5H9.67812V7.8ZM5.80687 7.8H3.87125V6.5H5.80687V7.8Z" fill="#32A148"/>
</svg>
