<svg width="44" height="47" viewBox="0 0 44 47" fill="none" xmlns="http://www.w3.org/2000/svg">
<path d="M17.5916 0.208193L20.6174 14.6627L34.7082 17.7666L20.6174 20.8705L17.5916 35.3251L14.5658 20.8705L0.475 17.7666L14.5658 14.6627L17.5916 0.208193Z" fill="#32A148"/>
<path d="M37.7288 2.71653L38.3536 5.61097L40.803 3.77284L39.3109 6.36926L42.4388 6.44753L39.5279 7.53102L41.8707 9.48907L38.9031 8.55266L39.3646 11.4743L37.7288 8.95614L36.0931 11.4743L36.5546 8.55266L33.587 9.48907L35.9298 7.53102L33.0189 6.44753L36.1468 6.36926L34.6546 3.77284L37.104 5.61097L37.7288 2.71653Z" fill="#32A148"/>
<path d="M21.6191 37.5825L22.2439 40.477L24.6932 38.6388L23.2011 41.2352L26.329 41.3135L23.4181 42.397L25.7609 44.355L22.7933 43.4186L23.2548 46.3403L21.6191 43.8221L19.9833 46.3403L20.4448 43.4186L17.4772 44.355L19.82 42.397L16.9091 41.3135L20.037 41.2352L18.5449 38.6388L20.9943 40.477L21.6191 37.5825Z" fill="#32A148"/>
<path d="M41.5045 28.5525L41.9372 30.0632L43.4664 29.6812L42.3698 30.81L43.4664 31.9388L41.9372 31.5568L41.5045 33.0675L41.0718 31.5568L39.5426 31.9388L40.6392 30.81L39.5426 29.6812L41.0718 30.0632L41.5045 28.5525Z" fill="#32A148"/>
<path d="M26.4017 21.5291L26.8343 23.0399L28.3636 22.6579L27.267 23.7866L28.3636 24.9154L26.8343 24.5334L26.4017 26.0442L25.969 24.5334L24.4398 24.9154L25.5364 23.7866L24.4398 22.6579L25.969 23.0399L26.4017 21.5291Z" fill="#32A148"/>
</svg>
